<svg width="171" height="230" viewBox="0 0 171 230" fill="none" xmlns="http://www.w3.org/2000/svg">
<path d="M85.3588 84.9731L1 1L74.249 227.906L85.3588 201.858M85.3588 192.361L24.9142 49.9921L59.7499 115.534L85.3588 90.239M11.4507 16.8919L82.9109 87.606L60.5972 109.328L11.4507 16.8919ZM83.4758 197.157L74.7198 217.562L19.2652 46.0427L83.4758 197.157Z" stroke="black"/>
<path d="M85.3588 84.9731L169.718 1L96.4685 227.906L85.3588 201.858M85.3588 192.361L145.803 49.9921L110.968 115.534L85.3588 90.239M159.267 16.8919L87.8067 87.606L110.12 109.328L159.267 16.8919ZM87.2418 197.157L95.9977 217.562L151.452 46.0427L87.2418 197.157Z" stroke="black"/>
</svg>
