<svg width="38" height="38" viewBox="0 0 38 38" fill="none" xmlns="http://www.w3.org/2000/svg">
<path d="M10.4757 33.25C9.74627 33.25 9.13774 33.0062 8.65008 32.5185C8.16241 32.0308 7.91805 31.4223 7.91699 30.6929V13.6404C7.91699 12.9121 8.16135 12.3041 8.65008 11.8164C9.1388 11.3287 9.74733 11.0844 10.4757 11.0833H13.4587V10.2917C13.4587 8.75267 13.9975 7.44431 15.0752 6.36658C16.153 5.28886 17.4613 4.75 19.0003 4.75C20.5393 4.75 21.8477 5.28886 22.9254 6.36658C24.0031 7.44431 24.542 8.75267 24.542 10.2917V11.0833H27.5266C28.2549 11.0833 28.8629 11.3277 29.3506 11.8164C29.8382 12.3051 30.0826 12.9137 30.0837 13.642V30.6929C30.0837 31.4213 29.8393 32.0298 29.3506 32.5185C28.8619 33.0072 28.2539 33.2511 27.5266 33.25H10.4757ZM10.4757 31.6667H27.5266C27.7694 31.6667 27.9926 31.5653 28.1963 31.3627C28.4 31.16 28.5014 30.9362 28.5003 30.6913V13.642C28.5003 13.3982 28.399 13.1744 28.1963 12.9707C27.9937 12.7669 27.7699 12.6656 27.525 12.6667H24.542V16.625C24.542 16.8509 24.4665 17.0393 24.3156 17.1903C24.1646 17.3412 23.9762 17.4167 23.7503 17.4167C23.5244 17.4167 23.336 17.3412 23.1851 17.1903C23.0341 17.0393 22.9587 16.8509 22.9587 16.625V12.6667H15.042V16.625C15.042 16.8509 14.9665 17.0393 14.8156 17.1903C14.6646 17.3412 14.4762 17.4167 14.2503 17.4167C14.0244 17.4167 13.836 17.3412 13.6851 17.1903C13.5341 17.0393 13.4587 16.8509 13.4587 16.625V12.6667H10.4757C10.2318 12.6667 10.008 12.768 9.80433 12.9707C9.6006 13.1733 9.49927 13.3971 9.50033 13.642V30.6929C9.50033 30.9357 9.60166 31.1589 9.80433 31.3627C10.007 31.5664 10.2302 31.6677 10.4741 31.6667M15.042 11.0833H22.9587V10.2917C22.9587 9.177 22.5776 8.23861 21.8155 7.4765C21.0534 6.71439 20.115 6.33333 19.0003 6.33333C17.8857 6.33333 16.9473 6.71439 16.1852 7.4765C15.423 8.23861 15.042 9.177 15.042 10.2917V11.0833Z" fill="black"/>
</svg>
