<svg width="749" height="230" viewBox="0 0 749 230" fill="none" xmlns="http://www.w3.org/2000/svg">
<path d="M100.984 139.6C100.984 146.267 99.651 152 96.9844 156.8C94.3177 161.467 90.851 165.267 86.5844 168.2C82.451 171.133 77.7177 173.267 72.3844 174.6C67.1844 175.933 61.9844 176.6 56.7844 176.6C51.451 176.6 46.851 176.067 42.9844 175C39.1177 173.933 35.5844 172.933 32.3844 172C30.251 171.333 28.3177 170.8 26.5844 170.4C24.851 169.867 23.1177 169.6 21.3844 169.6V146.8H23.3844C23.3844 151.867 24.651 155.933 27.1844 159C29.851 161.933 32.9177 164.2 36.3844 165.8C39.851 167.4 43.3177 168.467 46.7844 169C50.251 169.4 52.7844 169.6 54.3844 169.6C60.1177 169.6 65.051 168.8 69.1844 167.2C73.3177 165.467 76.7177 163.267 79.3844 160.6C82.051 157.8 83.9844 154.733 85.1844 151.4C86.5177 148.067 87.1844 144.667 87.1844 141.2C87.1844 136.8 86.251 133.133 84.3844 130.2C82.5177 127.133 80.051 124.467 76.9844 122.2C74.051 119.933 70.651 118 66.7844 116.4C62.9177 114.8 58.9844 113.2 54.9844 111.6C50.451 109.867 45.9844 108.067 41.5844 106.2C37.1844 104.333 33.251 102.067 29.7844 99.4C26.3177 96.6 23.5177 93.3333 21.3844 89.6C19.251 85.7333 18.1844 81 18.1844 75.4C18.1844 69.5333 19.3177 64.4667 21.5844 60.2C23.851 55.8 26.851 52.2 30.5844 49.4C34.451 46.6 38.7844 44.5333 43.5844 43.2C48.5177 41.7333 53.5177 41 58.5844 41C62.051 41 65.3177 41.2667 68.3844 41.8C71.451 42.2 74.3844 42.7333 77.1844 43.4C79.451 43.9333 81.651 44.4 83.7844 44.8C85.9177 45.0667 87.9844 45.2 89.9844 45.2V65.8H87.9844C87.7177 58.8667 84.9844 54.2 79.7844 51.8C74.5844 49.2667 67.3844 48 58.1844 48C52.851 48 48.451 48.9333 44.9844 50.8C41.651 52.5333 38.9844 54.7333 36.9844 57.4C34.9844 59.9333 33.5844 62.7333 32.7844 65.8C32.1177 68.7333 31.7844 71.3333 31.7844 73.6C31.7844 77.3333 32.5844 80.5333 34.1844 83.2C35.9177 85.8667 38.1844 88.2 40.9844 90.2C43.7844 92.2 46.9844 94 50.5844 95.6C54.3177 97.2 58.1844 98.7333 62.1844 100.2C66.7177 101.933 71.3177 103.8 75.9844 105.8C80.651 107.8 84.7844 110.267 88.3844 113.2C92.1177 116.133 95.1177 119.733 97.3844 124C99.7844 128.267 100.984 133.467 100.984 139.6ZM118.031 43H146.431V45H145.431C144.365 45 143.431 45.4 142.631 46.2C141.831 46.8667 141.098 47.7333 140.431 48.8C139.898 49.8667 139.498 51 139.231 52.2C138.965 53.4 138.831 54.4667 138.831 55.4V134.4C138.831 139.6 139.365 144.4 140.431 148.8C141.498 153.2 143.298 157 145.831 160.2C148.365 163.4 151.698 165.933 155.831 167.8C159.965 169.533 165.031 170.4 171.031 170.4C177.698 170.4 183.031 169.333 187.031 167.2C191.031 165.067 194.098 162.333 196.231 159C198.365 155.533 199.765 151.667 200.431 147.4C201.098 143.133 201.431 138.933 201.431 134.8V55.4C201.431 54.4667 201.298 53.4 201.031 52.2C200.765 51 200.298 49.8667 199.631 48.8C199.098 47.7333 198.431 46.8667 197.631 46.2C196.831 45.4 195.965 45 195.031 45H194.031V43H215.831V45H214.831C213.765 45 212.831 45.4 212.031 46.2C211.365 46.8667 210.698 47.7333 210.031 48.8C209.498 49.8667 209.098 51 208.831 52.2C208.565 53.4 208.431 54.4667 208.431 55.4V134.2C208.431 142.867 207.365 150 205.231 155.6C203.098 161.067 200.165 165.4 196.431 168.6C192.698 171.8 188.298 174 183.231 175.2C178.298 176.4 173.031 177 167.431 177C161.431 177 155.831 176.333 150.631 175C145.565 173.8 141.165 171.6 137.431 168.4C133.698 165.2 130.765 160.867 128.631 155.4C126.498 149.8 125.431 142.8 125.431 134.4V55.4C125.431 54.4667 125.298 53.4 125.031 52.2C124.765 51 124.298 49.8667 123.631 48.8C123.098 47.7333 122.431 46.8667 121.631 46.2C120.831 45.4 119.965 45 119.031 45H118.031V43ZM235.628 43H264.228V45H263.228C262.295 45 261.428 45.4 260.628 46.2C259.828 46.8667 259.161 47.7333 258.628 48.8C258.095 49.7333 257.628 50.8667 257.228 52.2C256.961 53.4 256.828 54.4667 256.828 55.4V162C256.828 163.067 256.961 164.267 257.228 165.6C257.495 166.8 257.895 167.933 258.428 169C259.095 170.067 259.761 171 260.428 171.8C261.228 172.6 262.161 173 263.228 173H264.228V175H235.628V173H236.628C237.695 173 238.628 172.667 239.428 172C240.228 171.2 240.895 170.267 241.428 169.2C242.095 168 242.561 166.8 242.828 165.6C243.095 164.267 243.228 163.067 243.228 162V55.4C243.228 54.4667 243.095 53.4 242.828 52.2C242.561 51 242.095 49.8667 241.428 48.8C240.895 47.7333 240.228 46.8667 239.428 46.2C238.628 45.4 237.695 45 236.628 45H235.628V43ZM334.061 173H335.061V175H306.661V173H307.661C308.728 173 309.661 172.6 310.461 171.8C311.261 171 311.928 170.067 312.461 169C313.128 167.933 313.594 166.8 313.861 165.6C314.128 164.267 314.261 163.067 314.261 162V50.4H291.061C288.928 50.4 287.061 50.8667 285.461 51.8C283.861 52.7333 282.528 53.9333 281.461 55.4C280.394 56.7333 279.594 58.2667 279.061 60C278.528 61.6 278.261 63.2 278.261 64.8H276.261V43H366.061V64.8H364.061C364.061 63.2 363.794 61.6 363.261 60C362.728 58.2667 361.928 56.7333 360.861 55.4C359.794 53.9333 358.461 52.7333 356.861 51.8C355.261 50.8667 353.394 50.4 351.261 50.4H327.661V162C327.661 163.067 327.794 164.267 328.061 165.6C328.328 166.8 328.728 167.933 329.261 169C329.928 170.067 330.594 171 331.261 171.8C332.061 172.6 332.994 173 334.061 173Z" fill="black"/>
<path d="M545.887 43H574.287V45H573.287C572.22 45 571.287 45.4 570.487 46.2C569.687 46.8667 568.953 47.7333 568.287 48.8C567.753 49.8667 567.353 51 567.087 52.2C566.82 53.4 566.687 54.4667 566.687 55.4V134.4C566.687 139.6 567.22 144.4 568.287 148.8C569.353 153.2 571.153 157 573.687 160.2C576.22 163.4 579.553 165.933 583.687 167.8C587.82 169.533 592.887 170.4 598.887 170.4C605.553 170.4 610.887 169.333 614.887 167.2C618.887 165.067 621.953 162.333 624.087 159C626.22 155.533 627.62 151.667 628.287 147.4C628.953 143.133 629.287 138.933 629.287 134.8V55.4C629.287 54.4667 629.153 53.4 628.887 52.2C628.62 51 628.153 49.8667 627.487 48.8C626.953 47.7333 626.287 46.8667 625.487 46.2C624.687 45.4 623.82 45 622.887 45H621.887V43H643.687V45H642.687C641.62 45 640.687 45.4 639.887 46.2C639.22 46.8667 638.553 47.7333 637.887 48.8C637.353 49.8667 636.953 51 636.687 52.2C636.42 53.4 636.287 54.4667 636.287 55.4V134.2C636.287 142.867 635.22 150 633.087 155.6C630.953 161.067 628.02 165.4 624.287 168.6C620.553 171.8 616.153 174 611.087 175.2C606.153 176.4 600.887 177 595.287 177C589.287 177 583.687 176.333 578.487 175C573.42 173.8 569.02 171.6 565.287 168.4C561.553 165.2 558.62 160.867 556.487 155.4C554.353 149.8 553.287 142.8 553.287 134.4V55.4C553.287 54.4667 553.153 53.4 552.887 52.2C552.62 51 552.153 49.8667 551.487 48.8C550.953 47.7333 550.287 46.8667 549.487 46.2C548.687 45.4 547.82 45 546.887 45H545.887V43ZM662.484 43H690.884C705.684 43 716.884 45.8667 724.484 51.6C732.217 57.2 736.084 65.2 736.084 75.6C736.084 81.2 734.75 86.2 732.084 90.6C729.417 95 725.884 98.7333 721.484 101.8C717.217 104.733 712.35 107 706.884 108.6C701.55 110.2 696.217 111 690.884 111H683.284V162C683.284 163.067 683.417 164.267 683.684 165.6C683.95 166.8 684.35 167.933 684.884 169C685.55 170.067 686.217 171 686.884 171.8C687.684 172.6 688.617 173 689.684 173H690.684V175H662.484V173H663.484C664.417 173 665.284 172.6 666.084 171.8C666.884 171 667.55 170.067 668.084 169C668.617 167.933 669.017 166.8 669.284 165.6C669.55 164.267 669.684 163.067 669.684 162V55.4C669.684 53.5333 669.15 51.4 668.084 49C667.017 46.6 665.484 45.2667 663.484 45H662.484V43ZM683.284 50V104H689.284C694.617 104 699.35 103.267 703.484 101.8C707.75 100.333 711.284 98.4 714.084 96C716.884 93.6 719.017 90.8667 720.484 87.8C721.95 84.7333 722.684 81.6 722.684 78.4C722.684 74.5333 722.017 70.9333 720.684 67.6C719.484 64.1333 717.417 61.1333 714.484 58.6C711.684 55.9333 707.95 53.8667 703.284 52.4C698.617 50.8 692.884 50 686.084 50H683.284Z" fill="black"/>
<path d="M452.359 84.9731L368 1L441.249 227.906L452.359 201.858M452.359 192.361L391.914 49.9921L426.75 115.534L452.359 90.239M378.451 16.8919L449.911 87.606L427.597 109.328L378.451 16.8919ZM450.476 197.157L441.72 217.562L386.265 46.0427L450.476 197.157Z" stroke="black"/>
<path d="M452.359 84.9731L536.718 1L463.469 227.906L452.359 201.858M452.359 192.361L512.803 49.9921L477.968 115.534L452.359 90.239M526.267 16.8919L454.807 87.606L477.12 109.328L526.267 16.8919ZM454.242 197.157L462.998 217.562L518.452 46.0427L454.242 197.157Z" stroke="black"/>
</svg>
